<svg xmlns="http://www.w3.org/2000/svg" xmlns:xlink="http://www.w3.org/1999/xlink" width="213.333" height="213.333" version="1.0">
	<desc>Picture of a blue sphere (circle with 3D highlighting)</desc>
	<defs>
		<radialGradient xlink:href="#a" id="e" cx="102.143" cy="545.934" r="135" fx="102.143" fy="545.934" gradientTransform="matrix(.54636 0 0 .44695 -116.493 666.159)" gradientUnits="userSpaceOnUse" />
		<radialGradient xlink:href="#c" id="g" cx="102.143" cy="545.934" r="135" fx="102.143" fy="545.934" gradientTransform="matrix(.35671 0 0 .35671 353.625 505.643)" gradientUnits="userSpaceOnUse" />
		<radialGradient xlink:href="#a" id="h" cx="102.143" cy="545.934" r="135" fx="102.143" fy="545.934" gradientTransform="matrix(.54636 0 0 .44695 -116.493 666.159)" gradientUnits="userSpaceOnUse" />
		<radialGradient xlink:href="#c" id="j" cx="102.143" cy="545.934" r="135" fx="102.143" fy="545.934" gradientTransform="matrix(.35671 0 0 .35671 353.625 505.643)" gradientUnits="userSpaceOnUse" />
		<radialGradient xlink:href="#a" id="k" cx="102.143" cy="545.934" r="135" fx="102.143" fy="545.934" gradientTransform="matrix(.54636 0 0 .44695 -116.493 666.159)" gradientUnits="userSpaceOnUse" />
		<radialGradient xlink:href="#c" id="m" cx="102.143" cy="545.934" r="135" fx="102.143" fy="545.934" gradientTransform="matrix(.35671 0 0 .35671 353.625 505.643)" gradientUnits="userSpaceOnUse" />
		<radialGradient xlink:href="#a" id="n" cx="102.143" cy="545.934" r="135" fx="102.143" fy="545.934" gradientTransform="matrix(.54636 0 0 .44695 -116.493 666.159)" gradientUnits="userSpaceOnUse" />
		<radialGradient xlink:href="#c" id="p" cx="102.143" cy="545.934" r="135" fx="102.143" fy="545.934" gradientTransform="matrix(.35671 0 0 .35671 353.625 505.643)" gradientUnits="userSpaceOnUse" />
		<radialGradient xlink:href="#a" id="q" cx="102.143" cy="545.934" r="135" fx="102.143" fy="545.934" gradientTransform="matrix(.54636 0 0 .44695 -116.493 666.159)" gradientUnits="userSpaceOnUse" />
		<radialGradient xlink:href="#c" id="s" cx="102.143" cy="545.934" r="135" fx="102.143" fy="545.934" gradientTransform="matrix(.35671 0 0 .35671 353.625 505.643)" gradientUnits="userSpaceOnUse" />
		<radialGradient xlink:href="#a" id="t" cx="102.143" cy="545.934" r="135" fx="102.143" fy="545.934" gradientTransform="matrix(.54636 0 0 .44695 14.059 407.686)" gradientUnits="userSpaceOnUse" />
		<radialGradient xlink:href="#c" id="v" cx="102.143" cy="545.934" r="135" fx="102.143" fy="545.934" gradientTransform="matrix(.35671 0 0 .35671 344.482 243.548)" gradientUnits="userSpaceOnUse" />
		<linearGradient id="d">
			<stop offset="0" style="stop-color:#770900;stop-opacity:1" />
			<stop offset=".5" style="stop-color:#da101b;stop-opacity:1" />
			<stop offset=".75" style="stop-color:#d2400f;stop-opacity:1" />
			<stop offset=".938" style="stop-color:#d44316;stop-opacity:.614583" />
			<stop offset="1" style="stop-color:#c30000;stop-opacity:.21875" />
		</linearGradient>
		<linearGradient id="c">
			<stop offset="0" style="stop-color:#fff;stop-opacity:1" />
			<stop offset="1" style="stop-color:#fff;stop-opacity:0" />
		</linearGradient>
		<linearGradient id="b">
			<stop offset="0" style="stop-color:#081074;stop-opacity:1" />
			<stop offset=".5" style="stop-color:#5873c2;stop-opacity:1" />
			<stop offset=".75" style="stop-color:#0f99d2;stop-opacity:1" />
			<stop offset=".938" style="stop-color:#1660d4;stop-opacity:.6156863" />
			<stop offset="1" style="stop-color:#414cf6;stop-opacity:.21568628" />
		</linearGradient>
		<linearGradient id="a">
			<stop offset="0" style="stop-color:#999;stop-opacity:1" />
			<stop offset="1" style="stop-color:#999;stop-opacity:0" />
		</linearGradient>
		<linearGradient xlink:href="#b" id="f" x1="154.286" x2="605.714" y1="535.219" y2="535.219" gradientTransform="matrix(.35671 0 0 .35671 -946.083 -374.467)" gradientUnits="userSpaceOnUse" />
		<linearGradient xlink:href="#b" id="i" x1="154.286" x2="605.714" y1="535.219" y2="535.219" gradientTransform="matrix(.35671 0 0 .35671 -946.083 -374.467)" gradientUnits="userSpaceOnUse" />
		<linearGradient xlink:href="#b" id="l" x1="154.286" x2="605.714" y1="535.219" y2="535.219" gradientTransform="matrix(.35671 0 0 .35671 -946.083 -374.467)" gradientUnits="userSpaceOnUse" />
		<linearGradient xlink:href="#b" id="o" x1="154.286" x2="605.714" y1="535.219" y2="535.219" gradientTransform="matrix(.35671 0 0 .35671 -946.083 -374.467)" gradientUnits="userSpaceOnUse" />
		<linearGradient xlink:href="#b" id="r" x1="154.286" x2="605.714" y1="535.219" y2="535.219" gradientTransform="matrix(.35671 0 0 .35671 -946.083 -374.467)" gradientUnits="userSpaceOnUse" />
		<linearGradient xlink:href="#d" id="u" x1="154.286" x2="605.714" y1="535.219" y2="535.219" gradientTransform="matrix(.35671 0 0 .35671 -746.061 -204.852)" gradientUnits="userSpaceOnUse" />
	</defs>
	<path d="M-.225 90.7h215.019v123.765H-.225z" style="fill:#ff4500;fill-opacity:1;fill-rule:evenodd;stroke:none;stroke-width:1.06666672" transform="rotate(.026)skewX(-.03)" />
	<text xml:space="preserve" x="121.686" y="174.918"
		style="font-style:normal;font-variant:normal;font-weight:400;font-stretch:normal;font-size:12.80000019px;line-height:0%;font-family:Busorama;-inkscape-font-specification:Busorama;text-align:center;writing-mode:lr-tb;text-anchor:middle;fill:snow;fill-opacity:1;fill-rule:evenodd;stroke:#fff;stroke-width:1.06666648;stroke-miterlimit:4;stroke-dasharray:none;stroke-opacity:1"
		transform="scale(.88915 1.12467)"><tspan x="121.686" y="174.918" style="font-size:109.60435486px;line-height:1.25;stroke-width:1.06666648">OWL</tspan></text>
	<path d="M359.057 451.525C278.66 554.663 182.892 585.285 139.39 583.828" style="fill:none;stroke:#0a3f6b;stroke-width:16.77659798;stroke-linecap:butt;stroke-linejoin:miter;stroke-miterlimit:4;stroke-dasharray:none;stroke-opacity:1"
		transform="matrix(.19473 0 0 .18684 31.42 -8.699)" />
	<path d="M531.277 144.515C308.675 311.211 195.699 349.65 127.088 336.185" style="fill:none;stroke:#184086;stroke-width:16.77659798;stroke-linecap:butt;stroke-linejoin:miter;stroke-miterlimit:4;stroke-dasharray:none;stroke-opacity:1"
		transform="matrix(.19473 0 0 .18684 31.42 -8.699)" />
	<path d="M678.894 454.918c-83.214-40.08-155.338-55.77-152.89-307.01-49.17 99.21-83.193 191.11-166.947 307.01-39.423 146.078-20.947 201.343 14.06 230.681"
		style="fill:none;stroke:#053f9d;stroke-width:16.77659798;stroke-linecap:butt;stroke-linejoin:miter;stroke-miterlimit:4;stroke-dasharray:none;stroke-opacity:1" transform="matrix(.19473 0 0 .18684 31.42 -8.699)" />
	<g transform="matrix(.12317 0 0 .11406 53.122 35.55)">
		<ellipse cx="-60.686" cy="910.162" rx="73.759" ry="60.338" style="fill:url(#e);fill-opacity:1;stroke:none;stroke-width:.49416181" transform="matrix(.95041 -.31099 .51542 .85694 0 0)" />
		<circle cx="-810.533" cy="-183.549" r="80.514" style="fill:url(#f);fill-opacity:1;stroke:none;stroke-width:.35670954" transform="rotate(-132.295)" />
		<circle cx="390.061" cy="700.383" r="48.156" style="opacity:.87614698;fill:url(#g);fill-opacity:1;stroke:none;stroke-width:.35670954" />
	</g>
	<g transform="matrix(.12317 0 0 .11406 112.478 -5.964)">
		<ellipse cx="-60.686" cy="910.162" rx="73.759" ry="60.338" style="fill:url(#h);fill-opacity:1;stroke:none;stroke-width:.49416181" transform="matrix(.95041 -.31099 .51542 .85694 0 0)" />
		<circle cx="-810.533" cy="-183.549" r="80.514" style="fill:url(#i);fill-opacity:1;stroke:none;stroke-width:.35670954" transform="rotate(-132.295)" />
		<circle cx="390.061" cy="700.383" r="48.156" style="opacity:.87614698;fill:url(#j);fill-opacity:1;stroke:none;stroke-width:.35670954" />
	</g>
	<g transform="matrix(.12317 0 0 .11406 8.105 17.17)">
		<ellipse cx="-60.686" cy="910.162" rx="73.759" ry="60.338" style="fill:url(#k);fill-opacity:1;stroke:none;stroke-width:.49416181" transform="matrix(.95041 -.31099 .51542 .85694 0 0)" />
		<circle cx="-810.533" cy="-183.549" r="80.514" style="fill:url(#l);fill-opacity:1;stroke:none;stroke-width:.35670954" transform="rotate(-132.295)" />
		<circle cx="390.061" cy="700.383" r="48.156" style="opacity:.87614698;fill:url(#m);fill-opacity:1;stroke:none;stroke-width:.35670954" />
	</g>
	<g transform="matrix(.12317 0 0 .11406 50.539 -6.281)">
		<ellipse cx="-60.686" cy="910.162" rx="73.759" ry="60.338" style="fill:url(#n);fill-opacity:1;stroke:none;stroke-width:.49416181" transform="matrix(.95041 -.31099 .51542 .85694 0 0)" />
		<circle cx="-810.533" cy="-183.549" r="80.514" style="fill:url(#o);fill-opacity:1;stroke:none;stroke-width:.35670954" transform="rotate(-132.295)" />
		<circle cx="390.061" cy="700.383" r="48.156" style="opacity:.87614698;fill:url(#p);fill-opacity:1;stroke:none;stroke-width:.35670954" />
	</g>
	<g transform="matrix(.12317 0 0 .11406 4.341 -30.05)">
		<ellipse cx="-60.686" cy="910.162" rx="73.759" ry="60.338" style="fill:url(#q);fill-opacity:1;stroke:none;stroke-width:.49416181" transform="matrix(.95041 -.31099 .51542 .85694 0 0)" />
		<circle cx="-810.533" cy="-183.549" r="80.514" style="fill:url(#r);fill-opacity:1;stroke:none;stroke-width:.35670954" transform="rotate(-132.295)" />
		<circle cx="390.061" cy="700.383" r="48.156" style="opacity:.87614698;fill:url(#s);fill-opacity:1;stroke:none;stroke-width:.35670954" />
	</g>
	<g transform="matrix(.12799 0 0 .11853 83.503 -39.25)">
		<ellipse cx="69.866" cy="651.689" rx="73.759" ry="60.338" style="fill:url(#t);fill-opacity:1;stroke:none;stroke-width:.49416181" transform="matrix(.95041 -.31099 .51542 .85694 0 0)" />
		<circle cx="-610.512" cy="-13.935" r="80.514" style="fill:url(#u);fill-opacity:1;stroke:none;stroke-width:.35670954" transform="rotate(-132.295)" />
		<circle cx="380.918" cy="438.288" r="48.156" style="opacity:.87614698;fill:url(#v);fill-opacity:1;stroke:none;stroke-width:.35670954" />
	</g>
	<path
		d="M205.256 38.995h-3.034a21.558 21.558 0 0 1-2.103 5.041l2.803 2.805a4.592 4.592 0 0 1 0 6.495l-1.623 1.626a4.595 4.595 0 0 1-6.498 0l-2.821-2.823a21.652 21.652 0 0 1-5.027 2.068v2.944a4.593 4.593 0 0 1-4.594 4.593h-2.297a4.595 4.595 0 0 1-4.594-4.593v-2.944a21.73 21.73 0 0 1-5.028-2.068l-2.82 2.823a4.592 4.592 0 0 1-6.496 0l-1.623-1.626a4.592 4.592 0 0 1 0-6.495l2.803-2.805a21.71 21.71 0 0 1-2.105-5.041h-3.03a4.595 4.595 0 0 1-4.594-4.597v-2.295a4.595 4.595 0 0 1 4.593-4.596h2.996a21.7 21.7 0 0 1 2.033-5.007l-2.696-2.697a4.593 4.593 0 0 1 0-6.496l1.623-1.622a4.592 4.592 0 0 1 6.495 0l2.642 2.64a21.707 21.707 0 0 1 5.207-2.175V9.063a4.595 4.595 0 0 1 4.594-4.594h2.297a4.594 4.594 0 0 1 4.594 4.594v3.084a21.675 21.675 0 0 1 5.206 2.178l2.642-2.64a4.595 4.595 0 0 1 6.498 0l1.623 1.622a4.593 4.593 0 0 1 0 6.496l-2.696 2.697a21.7 21.7 0 0 1 2.033 5.007h2.996a4.595 4.595 0 0 1 4.593 4.596v2.295a4.592 4.592 0 0 1-4.592 4.597zM181.212 20.69c-6.976 0-12.632 5.656-12.632 12.632 0 6.978 5.656 12.634 12.632 12.634s12.632-5.656 12.632-12.634c0-6.976-5.656-12.632-12.632-12.632zm0 18.232a5.745 5.745 0 0 1-5.743-5.743 5.745 5.745 0 0 1 5.743-5.743 5.743 5.743 0 0 1 0 11.486z"
		style="clip-rule:evenodd;fill:#b3b3b3;fill-rule:evenodd;stroke-width:1.43187869" />
</svg>