<svg xmlns="http://www.w3.org/2000/svg" xmlns:xlink="http://www.w3.org/1999/xlink" width="640" height="640" version="1.0"><desc>Picture of a blue sphere (circle with 3D highlighting)</desc><defs><radialGradient xlink:href="#a" id="e" cx="102.143" cy="545.934" r="135" fx="102.143" fy="545.934" gradientTransform="matrix(.54636 0 0 .44695 -116.493 666.159)" gradientUnits="userSpaceOnUse"/><radialGradient xlink:href="#c" id="g" cx="102.143" cy="545.934" r="135" fx="102.143" fy="545.934" gradientTransform="matrix(.35671 0 0 .35671 353.625 505.643)" gradientUnits="userSpaceOnUse"/><radialGradient xlink:href="#a" id="h" cx="102.143" cy="545.934" r="135" fx="102.143" fy="545.934" gradientTransform="matrix(.54636 0 0 .44695 -116.493 666.159)" gradientUnits="userSpaceOnUse"/><radialGradient xlink:href="#c" id="j" cx="102.143" cy="545.934" r="135" fx="102.143" fy="545.934" gradientTransform="matrix(.35671 0 0 .35671 353.625 505.643)" gradientUnits="userSpaceOnUse"/><radialGradient xlink:href="#a" id="k" cx="102.143" cy="545.934" r="135" fx="102.143" fy="545.934" gradientTransform="matrix(.54636 0 0 .44695 -116.493 666.159)" gradientUnits="userSpaceOnUse"/><radialGradient xlink:href="#c" id="m" cx="102.143" cy="545.934" r="135" fx="102.143" fy="545.934" gradientTransform="matrix(.35671 0 0 .35671 353.625 505.643)" gradientUnits="userSpaceOnUse"/><radialGradient xlink:href="#a" id="n" cx="102.143" cy="545.934" r="135" fx="102.143" fy="545.934" gradientTransform="matrix(.54636 0 0 .44695 -116.493 666.159)" gradientUnits="userSpaceOnUse"/><radialGradient xlink:href="#c" id="p" cx="102.143" cy="545.934" r="135" fx="102.143" fy="545.934" gradientTransform="matrix(.35671 0 0 .35671 353.625 505.643)" gradientUnits="userSpaceOnUse"/><radialGradient xlink:href="#a" id="q" cx="102.143" cy="545.934" r="135" fx="102.143" fy="545.934" gradientTransform="matrix(.54636 0 0 .44695 -116.493 666.159)" gradientUnits="userSpaceOnUse"/><radialGradient xlink:href="#c" id="s" cx="102.143" cy="545.934" r="135" fx="102.143" fy="545.934" gradientTransform="matrix(.35671 0 0 .35671 353.625 505.643)" gradientUnits="userSpaceOnUse"/><radialGradient xlink:href="#a" id="t" cx="102.143" cy="545.934" r="135" fx="102.143" fy="545.934" gradientTransform="matrix(.54636 0 0 .44695 14.059 407.686)" gradientUnits="userSpaceOnUse"/><radialGradient xlink:href="#c" id="v" cx="102.143" cy="545.934" r="135" fx="102.143" fy="545.934" gradientTransform="matrix(.35671 0 0 .35671 344.482 243.548)" gradientUnits="userSpaceOnUse"/><linearGradient id="d"><stop offset="0" style="stop-color:#770900;stop-opacity:1"/><stop offset=".5" style="stop-color:#da101b;stop-opacity:1"/><stop offset=".75" style="stop-color:#d2400f;stop-opacity:1"/><stop offset=".938" style="stop-color:#d44316;stop-opacity:.614583"/><stop offset="1" style="stop-color:#c30000;stop-opacity:.21875"/></linearGradient><linearGradient id="c"><stop offset="0" style="stop-color:#fff;stop-opacity:1"/><stop offset="1" style="stop-color:#fff;stop-opacity:0"/></linearGradient><linearGradient id="b"><stop offset="0" style="stop-color:#081074;stop-opacity:1"/><stop offset=".5" style="stop-color:#5873c2;stop-opacity:1"/><stop offset=".75" style="stop-color:#0f99d2;stop-opacity:1"/><stop offset=".938" style="stop-color:#1660d4;stop-opacity:.6156863"/><stop offset="1" style="stop-color:#414cf6;stop-opacity:.21568628"/></linearGradient><linearGradient id="a"><stop offset="0" style="stop-color:#999;stop-opacity:1"/><stop offset="1" style="stop-color:#999;stop-opacity:0"/></linearGradient><linearGradient xlink:href="#b" id="f" x1="154.286" x2="605.714" y1="535.219" y2="535.219" gradientTransform="matrix(.35671 0 0 .35671 -946.083 -374.467)" gradientUnits="userSpaceOnUse"/><linearGradient xlink:href="#b" id="i" x1="154.286" x2="605.714" y1="535.219" y2="535.219" gradientTransform="matrix(.35671 0 0 .35671 -946.083 -374.467)" gradientUnits="userSpaceOnUse"/><linearGradient xlink:href="#b" id="l" x1="154.286" x2="605.714" y1="535.219" y2="535.219" gradientTransform="matrix(.35671 0 0 .35671 -946.083 -374.467)" gradientUnits="userSpaceOnUse"/><linearGradient xlink:href="#b" id="o" x1="154.286" x2="605.714" y1="535.219" y2="535.219" gradientTransform="matrix(.35671 0 0 .35671 -946.083 -374.467)" gradientUnits="userSpaceOnUse"/><linearGradient xlink:href="#b" id="r" x1="154.286" x2="605.714" y1="535.219" y2="535.219" gradientTransform="matrix(.35671 0 0 .35671 -946.083 -374.467)" gradientUnits="userSpaceOnUse"/><linearGradient xlink:href="#d" id="u" x1="154.286" x2="605.714" y1="535.219" y2="535.219" gradientTransform="matrix(.35671 0 0 .35671 -746.061 -204.852)" gradientUnits="userSpaceOnUse"/></defs><g transform="translate(6.883 -6.163)"><ellipse cx="313.117" cy="326.163" rx="313.117" ry="313.837" style="opacity:.98999999;fill:#ff4500;fill-opacity:1;fill-rule:evenodd;stroke:none;stroke-width:5;stroke-linecap:round;stroke-linejoin:round;stroke-miterlimit:4;stroke-dasharray:none;stroke-dashoffset:0;stroke-opacity:1"/><text xml:space="preserve" x="353.34" y="442.229" style="font-style:normal;font-variant:normal;font-weight:400;font-stretch:normal;font-size:24.70380974px;line-height:0%;font-family:Busorama;-inkscape-font-specification:Busorama;text-align:center;writing-mode:lr-tb;text-anchor:middle;fill:snow;fill-opacity:1;fill-rule:evenodd;stroke:#fff;stroke-width:2.05865049;stroke-miterlimit:4;stroke-dasharray:none;stroke-opacity:1" transform="scale(.88915 1.12467)"><tspan x="353.34" y="442.229" style="font-size:211.53477478px;line-height:1.25;stroke-width:2.05865049">OWL</tspan></text><path d="M359.057 451.525C278.66 554.663 182.892 585.285 139.39 583.828" style="fill:none;stroke:#0a3f6b;stroke-width:16.77659798;stroke-linecap:butt;stroke-linejoin:miter;stroke-miterlimit:4;stroke-dasharray:none;stroke-opacity:1" transform="matrix(.38415 0 0 .36859 160.332 31.093)"/><path d="M531.277 144.515C308.675 311.211 195.699 349.65 127.088 336.185" style="fill:none;stroke:#184086;stroke-width:16.77659798;stroke-linecap:butt;stroke-linejoin:miter;stroke-miterlimit:4;stroke-dasharray:none;stroke-opacity:1" transform="matrix(.38415 0 0 .36859 160.332 31.093)"/><path d="M678.894 454.918c-83.214-40.08-155.338-55.77-152.89-307.01-49.17 99.21-83.193 191.11-166.947 307.01-39.423 146.078-20.947 201.343 14.06 230.681" style="fill:none;stroke:#053f9d;stroke-width:16.77659798;stroke-linecap:butt;stroke-linejoin:miter;stroke-miterlimit:4;stroke-dasharray:none;stroke-opacity:1" transform="matrix(.38415 0 0 .36859 160.332 31.093)"/><g transform="matrix(.24298 0 0 .22502 203.144 118.388)"><ellipse cx="-60.686" cy="910.162" rx="73.759" ry="60.338" style="fill:url(#e);fill-opacity:1;stroke:none;stroke-width:.49416181" transform="matrix(.95041 -.31099 .51542 .85694 0 0)"/><circle cx="-810.533" cy="-183.549" r="80.514" style="fill:url(#f);fill-opacity:1;stroke:none;stroke-width:.35670954" transform="rotate(-132.295)"/><circle cx="390.061" cy="700.383" r="48.156" style="opacity:.87614698;fill:url(#g);fill-opacity:1;stroke:none;stroke-width:.35670954"/></g><g transform="matrix(.24298 0 0 .22502 320.239 36.488)"><ellipse cx="-60.686" cy="910.162" rx="73.759" ry="60.338" style="fill:url(#h);fill-opacity:1;stroke:none;stroke-width:.49416181" transform="matrix(.95041 -.31099 .51542 .85694 0 0)"/><circle cx="-810.533" cy="-183.549" r="80.514" style="fill:url(#i);fill-opacity:1;stroke:none;stroke-width:.35670954" transform="rotate(-132.295)"/><circle cx="390.061" cy="700.383" r="48.156" style="opacity:.87614698;fill:url(#j);fill-opacity:1;stroke:none;stroke-width:.35670954"/></g><g transform="matrix(.24298 0 0 .22502 114.336 82.127)"><ellipse cx="-60.686" cy="910.162" rx="73.759" ry="60.338" style="fill:url(#k);fill-opacity:1;stroke:none;stroke-width:.49416181" transform="matrix(.95041 -.31099 .51542 .85694 0 0)"/><circle cx="-810.533" cy="-183.549" r="80.514" style="fill:url(#l);fill-opacity:1;stroke:none;stroke-width:.35670954" transform="rotate(-132.295)"/><circle cx="390.061" cy="700.383" r="48.156" style="opacity:.87614698;fill:url(#m);fill-opacity:1;stroke:none;stroke-width:.35670954"/></g><g transform="matrix(.24298 0 0 .22502 198.047 35.863)"><ellipse cx="-60.686" cy="910.162" rx="73.759" ry="60.338" style="fill:url(#n);fill-opacity:1;stroke:none;stroke-width:.49416181" transform="matrix(.95041 -.31099 .51542 .85694 0 0)"/><circle cx="-810.533" cy="-183.549" r="80.514" style="fill:url(#o);fill-opacity:1;stroke:none;stroke-width:.35670954" transform="rotate(-132.295)"/><circle cx="390.061" cy="700.383" r="48.156" style="opacity:.87614698;fill:url(#p);fill-opacity:1;stroke:none;stroke-width:.35670954"/></g><g transform="matrix(.24298 0 0 .22502 106.91 -11.027)"><ellipse cx="-60.686" cy="910.162" rx="73.759" ry="60.338" style="fill:url(#q);fill-opacity:1;stroke:none;stroke-width:.49416181" transform="matrix(.95041 -.31099 .51542 .85694 0 0)"/><circle cx="-810.533" cy="-183.549" r="80.514" style="fill:url(#r);fill-opacity:1;stroke:none;stroke-width:.35670954" transform="rotate(-132.295)"/><circle cx="390.061" cy="700.383" r="48.156" style="opacity:.87614698;fill:url(#s);fill-opacity:1;stroke:none;stroke-width:.35670954"/></g><g transform="matrix(.2525 0 0 .23383 263.079 -29.176)"><ellipse cx="69.866" cy="651.689" rx="73.759" ry="60.338" style="fill:url(#t);fill-opacity:1;stroke:none;stroke-width:.49416181" transform="matrix(.95041 -.31099 .51542 .85694 0 0)"/><circle cx="-610.512" cy="-13.935" r="80.514" style="fill:url(#u);fill-opacity:1;stroke:none;stroke-width:.35670954" transform="rotate(-132.295)"/><circle cx="380.918" cy="438.288" r="48.156" style="opacity:.87614698;fill:url(#v);fill-opacity:1;stroke:none;stroke-width:.35670954"/></g><path d="M553.414 234.434h-5.475a38.897 38.897 0 0 1-3.795 9.097l5.059 5.061c3.237 3.24 3.237 8.487 0 11.72l-2.93 2.932a8.29 8.29 0 0 1-11.724 0l-5.09-5.092a39.068 39.068 0 0 1-9.07 3.73v5.312a8.287 8.287 0 0 1-8.289 8.288h-4.144c-4.576 0-8.29-3.71-8.29-8.288v-5.312a39.208 39.208 0 0 1-9.072-3.73l-5.09 5.092c-3.231 3.237-8.481 3.237-11.718 0l-2.93-2.933c-3.237-3.232-3.237-8.479 0-11.719l5.059-5.06a39.17 39.17 0 0 1-3.798-9.098h-5.47c-4.578 0-8.288-3.715-8.288-8.293V222c0-4.578 3.71-8.294 8.288-8.294h5.405a39.155 39.155 0 0 1 3.669-9.034l-4.865-4.865a8.288 8.288 0 0 1 0-11.722l2.93-2.927c3.237-3.237 8.487-3.237 11.719 0l4.766 4.764a39.166 39.166 0 0 1 9.394-3.925v-5.57c0-4.578 3.715-8.288 8.291-8.288h4.144a8.289 8.289 0 0 1 8.288 8.288v5.565c3.33.91 6.48 2.233 9.394 3.93l4.767-4.764a8.29 8.29 0 0 1 11.724 0l2.93 2.927a8.288 8.288 0 0 1 0 11.722l-4.865 4.865a39.154 39.154 0 0 1 3.669 9.034h5.404c4.579 0 8.289 3.716 8.289 8.294v4.141a8.285 8.285 0 0 1-8.286 8.293zm-43.383-33.025c-12.588 0-22.793 10.205-22.793 22.792 0 12.59 10.205 22.795 22.793 22.795 12.587 0 22.792-10.205 22.792-22.795 0-12.587-10.205-22.792-22.792-22.792zm0 32.896c-5.72 0-10.363-4.643-10.363-10.363s4.643-10.362 10.363-10.362 10.357 4.642 10.357 10.362-4.637 10.363-10.357 10.363z" style="clip-rule:evenodd;fill:#b3b3b3;fill-rule:evenodd;stroke-width:2.58357453"/></g></svg>