<svg xmlns="http://www.w3.org/2000/svg" width="341.333" height="341.333"><defs><linearGradient id="a"><stop offset="0" style="stop-color:#000;stop-opacity:1"/><stop offset="1" style="stop-color:#000;stop-opacity:0"/></linearGradient></defs><text xml:space="preserve" x="205.566" y="226.599" style="font-style:normal;font-variant:normal;font-weight:400;font-stretch:condensed;font-size:12.80000019px;line-height:0%;font-family:Impact;-inkscape-font-specification:&quot;Impact Condensed&quot;;text-align:start;writing-mode:lr-tb;text-anchor:start;fill:#86ba0c;fill-opacity:1;stroke:none;stroke-width:.74274063;stroke-miterlimit:4;stroke-dasharray:none;stroke-opacity:1" transform="matrix(.97593 0 0 1.02466 -195.48 101.168)"><tspan x="205.566" y="226.599" style="font-size:191.77813721px;line-height:1.25;fill:#86ba0c;fill-opacity:1;stroke-width:.74274063;stroke:none">O</tspan></text><g style="overflow:visible"><g style="image-rendering:optimizeQuality;shape-rendering:geometricPrecision;text-rendering:geometricPrecision"><path d="M82.227 19.022C132.244 41.56 143.15 0 143.15 0s-9.5 52.13-53.355 73.423c-8.935 4.344-14.484 6.673-14.484 6.673L3.469 45.076l71.843-29.461c-.001 0-1.734-.49 6.915 3.407z" style="fill:#86ba0c;stroke-width:1.06666672" transform="translate(97.618 -.844)"/><path d="M62.756 88.805v72.148L0 126.977V56.906z" style="fill:#ef7c00" transform="matrix(1.06667 0 0 1.06667 97.618 -.844)"/><path d="M76.871 88.805v72.148l62.752-33.976V56.906z" style="fill:#bd1789" transform="matrix(1.06667 0 0 1.06667 97.618 -.844)"/></g></g><text xml:space="preserve" x="317.755" y="225.599" style="font-style:normal;font-variant:normal;font-weight:400;font-stretch:condensed;font-size:12.80000019px;line-height:0%;font-family:Impact;-inkscape-font-specification:&quot;Impact Condensed&quot;;text-align:start;writing-mode:lr-tb;text-anchor:start;fill:#ef7c00;fill-opacity:1;stroke:none;stroke-width:.74274063;stroke-miterlimit:4;stroke-dasharray:none;stroke-opacity:1" transform="matrix(.95822 0 0 1.0436 -195.48 101.168)"><tspan x="317.755" y="225.599" style="font-size:195.323349px;line-height:1.25;fill:#ef7c00;fill-opacity:1;stroke-width:.74274063;stroke:none">W</tspan></text><text xml:space="preserve" x="475.718" y="225.092" style="font-style:normal;font-variant:normal;font-weight:400;font-stretch:condensed;font-size:12.80000019px;line-height:0%;font-family:Impact;-inkscape-font-specification:&quot;Impact Condensed&quot;;text-align:start;writing-mode:lr-tb;text-anchor:start;fill:#bd1789;fill-opacity:1;stroke:none;stroke-width:.74274063;stroke-miterlimit:4;stroke-dasharray:none;stroke-opacity:1" transform="matrix(.95607 0 0 1.04595 -195.48 101.168)"><tspan x="475.718" y="225.092" style="font-size:195.76197815px;line-height:1.25;fill:#bd1789;fill-opacity:1;stroke-width:.74274063;stroke:none">L</tspan></text><path d="M526.712-44.734h-4.766a33.86 33.86 0 0 1-3.304 7.919l4.404 4.406c2.818 2.82 2.818 7.387 0 10.2l-2.55 2.553a7.217 7.217 0 0 1-10.206 0l-4.43-4.432a34.008 34.008 0 0 1-7.897 3.247v4.624a7.214 7.214 0 0 1-7.215 7.215h-3.607a7.217 7.217 0 0 1-7.217-7.215v-4.624a34.13 34.13 0 0 1-7.896-3.247l-4.43 4.432a7.212 7.212 0 0 1-10.202 0l-2.55-2.552c-2.818-2.814-2.818-7.381 0-10.201l4.403-4.406a34.098 34.098 0 0 1-3.306-7.919h-4.761a7.218 7.218 0 0 1-7.215-7.22v-3.604c0-3.985 3.23-7.22 7.215-7.22h4.705a34.084 34.084 0 0 1 3.193-7.864l-4.234-4.235a7.214 7.214 0 0 1 0-10.203l2.55-2.549a7.212 7.212 0 0 1 10.201 0l4.15 4.148a34.093 34.093 0 0 1 8.177-3.417v-4.848a7.217 7.217 0 0 1 7.217-7.215h3.607a7.215 7.215 0 0 1 7.215 7.215v4.844a34.044 34.044 0 0 1 8.177 3.42l4.15-4.147a7.217 7.217 0 0 1 10.205 0l2.55 2.549a7.214 7.214 0 0 1 0 10.203l-4.234 4.235a34.084 34.084 0 0 1 3.193 7.865h4.705a7.218 7.218 0 0 1 7.215 7.219v3.605a7.212 7.212 0 0 1-7.212 7.22zm-37.765-28.748c-10.957 0-19.84 8.883-19.84 19.84 0 10.96 8.883 19.843 19.84 19.843s19.84-8.884 19.84-19.843c0-10.957-8.883-19.84-19.84-19.84zm0 28.636c-4.98 0-9.02-4.042-9.02-9.02 0-4.98 4.04-9.022 9.02-9.022 4.979 0 9.016 4.042 9.016 9.021 0 4.98-4.037 9.02-9.016 9.02z" style="clip-rule:evenodd;fill:#b3b3b3;fill-rule:evenodd;stroke-width:2.24897432" transform="translate(-195.48 101.168)"/></svg>