<svg xmlns="http://www.w3.org/2000/svg" xmlns:xlink="http://www.w3.org/1999/xlink" width="213.333" height="213.333" version="1.0">
	<desc>Picture of a blue sphere (circle with 3D highlighting)</desc>
	<defs>
		<radialGradient xlink:href="#c" id="h" cx="102.143" cy="545.934" r="135" fx="102.143" fy="545.934" gradientTransform="matrix(.54636 0 0 .44695 -116.493 666.159)" gradientUnits="userSpaceOnUse" />
		<radialGradient xlink:href="#f" id="j" cx="102.143" cy="545.934" r="135" fx="102.143" fy="545.934" gradientTransform="translate(353.625 505.643)scale(.35671)" gradientUnits="userSpaceOnUse" />
		<radialGradient xlink:href="#c" id="k" cx="102.143" cy="545.934" r="135" fx="102.143" fy="545.934" gradientTransform="matrix(.54636 0 0 .44695 -116.493 666.159)" gradientUnits="userSpaceOnUse" />
		<radialGradient xlink:href="#f" id="m" cx="102.143" cy="545.934" r="135" fx="102.143" fy="545.934" gradientTransform="translate(353.625 505.643)scale(.35671)" gradientUnits="userSpaceOnUse" />
		<radialGradient xlink:href="#c" id="n" cx="102.143" cy="545.934" r="135" fx="102.143" fy="545.934" gradientTransform="matrix(.54636 0 0 .44695 -116.493 666.159)" gradientUnits="userSpaceOnUse" />
		<radialGradient xlink:href="#f" id="p" cx="102.143" cy="545.934" r="135" fx="102.143" fy="545.934" gradientTransform="translate(353.625 505.643)scale(.35671)" gradientUnits="userSpaceOnUse" />
		<radialGradient xlink:href="#c" id="q" cx="102.143" cy="545.934" r="135" fx="102.143" fy="545.934" gradientTransform="matrix(.54636 0 0 .44695 -116.493 666.159)" gradientUnits="userSpaceOnUse" />
		<radialGradient xlink:href="#f" id="s" cx="102.143" cy="545.934" r="135" fx="102.143" fy="545.934" gradientTransform="translate(353.625 505.643)scale(.35671)" gradientUnits="userSpaceOnUse" />
		<radialGradient xlink:href="#c" id="t" cx="102.143" cy="545.934" r="135" fx="102.143" fy="545.934" gradientTransform="matrix(.54636 0 0 .44695 -116.493 666.159)" gradientUnits="userSpaceOnUse" />
		<radialGradient xlink:href="#f" id="v" cx="102.143" cy="545.934" r="135" fx="102.143" fy="545.934" gradientTransform="translate(353.625 505.643)scale(.35671)" gradientUnits="userSpaceOnUse" />
		<radialGradient xlink:href="#c" id="w" cx="102.143" cy="545.934" r="135" fx="102.143" fy="545.934" gradientTransform="matrix(.54636 0 0 .44695 14.059 407.686)" gradientUnits="userSpaceOnUse" />
		<radialGradient xlink:href="#f" id="y" cx="102.143" cy="545.934" r="135" fx="102.143" fy="545.934" gradientTransform="translate(344.482 243.548)scale(.35671)" gradientUnits="userSpaceOnUse" />
		<linearGradient id="b">
			<stop offset="0" style="stop-color:#770900;stop-opacity:1" />
			<stop offset=".5" style="stop-color:#da101b;stop-opacity:1" />
			<stop offset=".75" style="stop-color:#d2400f;stop-opacity:1" />
			<stop offset=".938" style="stop-color:#d44316;stop-opacity:.614583" />
			<stop offset="1" style="stop-color:#c30000;stop-opacity:.21875" />
		</linearGradient>
		<linearGradient id="f">
			<stop offset="0" style="stop-color:#fff;stop-opacity:1" />
			<stop offset="1" style="stop-color:#fff;stop-opacity:0" />
		</linearGradient>
		<linearGradient id="a">
			<stop offset="0" style="stop-color:#081074;stop-opacity:1" />
			<stop offset=".5" style="stop-color:#5873c2;stop-opacity:1" />
			<stop offset=".75" style="stop-color:#0f99d2;stop-opacity:1" />
			<stop offset=".938" style="stop-color:#1660d4;stop-opacity:.6156863" />
			<stop offset="1" style="stop-color:#414cf6;stop-opacity:.21568628" />
		</linearGradient>
		<linearGradient id="c">
			<stop offset="0" style="stop-color:#999;stop-opacity:1" />
			<stop offset="1" style="stop-color:#999;stop-opacity:0" />
		</linearGradient>
		<linearGradient xlink:href="#a" id="i" x1="154.286" x2="605.714" y1="535.219" y2="535.219" gradientTransform="translate(-946.083 -374.467)scale(.35671)" gradientUnits="userSpaceOnUse" />
		<linearGradient xlink:href="#a" id="l" x1="154.286" x2="605.714" y1="535.219" y2="535.219" gradientTransform="translate(-946.083 -374.467)scale(.35671)" gradientUnits="userSpaceOnUse" />
		<linearGradient xlink:href="#a" id="o" x1="154.286" x2="605.714" y1="535.219" y2="535.219" gradientTransform="translate(-946.083 -374.467)scale(.35671)" gradientUnits="userSpaceOnUse" />
		<linearGradient xlink:href="#a" id="r" x1="154.286" x2="605.714" y1="535.219" y2="535.219" gradientTransform="translate(-946.083 -374.467)scale(.35671)" gradientUnits="userSpaceOnUse" />
		<linearGradient xlink:href="#a" id="u" x1="154.286" x2="605.714" y1="535.219" y2="535.219" gradientTransform="translate(-946.083 -374.467)scale(.35671)" gradientUnits="userSpaceOnUse" />
		<linearGradient xlink:href="#b" id="x" x1="154.286" x2="605.714" y1="535.219" y2="535.219" gradientTransform="translate(-746.061 -204.852)scale(.35671)" gradientUnits="userSpaceOnUse" />
	</defs>
	<path d="M-.225 90.7h215.019v123.765H-.225z" style="fill:purple;fill-opacity:1;fill-rule:evenodd;stroke:none;stroke-width:1.06666672" transform="rotate(.026)skewX(-.03)" />
	<text xml:space="preserve" x="101.048" y="162.785"
		style="font-style:normal;font-variant:normal;font-weight:400;font-stretch:normal;font-size:12.80000019px;line-height:0%;font-family:Busorama;-inkscape-font-specification:Busorama;text-align:center;writing-mode:lr-tb;text-anchor:middle;fill:snow;fill-opacity:1;fill-rule:evenodd;stroke:#fff;stroke-width:1.06666672;stroke-miterlimit:4;stroke-dasharray:none;stroke-opacity:1"
		transform="scale(1.06953 .93499)"><tspan x="101.048" y="162.785" style="font-size:71.31918335px;line-height:1.25;fill:snow;fill-opacity:1;stroke:#fff;stroke-width:1.06666672;stroke-miterlimit:4;stroke-dasharray:none;stroke-opacity:1">Word</tspan></text>
	<path d="M359.057 451.525C278.66 554.663 182.892 585.285 139.39 583.828" style="fill:none;stroke:#0a3f6b;stroke-width:16.77659798;stroke-linecap:butt;stroke-linejoin:miter;stroke-miterlimit:4;stroke-dasharray:none;stroke-opacity:1"
		transform="matrix(.19473 0 0 .18684 31.42 -8.699)" />
	<path d="M531.277 144.515C308.675 311.211 195.699 349.65 127.088 336.185" style="fill:none;stroke:#184086;stroke-width:16.77659798;stroke-linecap:butt;stroke-linejoin:miter;stroke-miterlimit:4;stroke-dasharray:none;stroke-opacity:1"
		transform="matrix(.19473 0 0 .18684 31.42 -8.699)" />
	<path d="M678.894 454.918c-83.214-40.08-155.338-55.77-152.89-307.01-49.17 99.21-83.193 191.11-166.947 307.01-39.423 146.078-20.947 201.343 14.06 230.681"
		style="fill:none;stroke:#053f9d;stroke-width:16.77659798;stroke-linecap:butt;stroke-linejoin:miter;stroke-miterlimit:4;stroke-dasharray:none;stroke-opacity:1" transform="matrix(.19473 0 0 .18684 31.42 -8.699)" />
	<g transform="matrix(.12317 0 0 .11406 53.122 35.55)">
		<ellipse cx="-60.686" cy="910.162" rx="73.759" ry="60.338" style="fill:url(#h);fill-opacity:1;stroke:none;stroke-width:.49416181" transform="matrix(.95041 -.31099 .51542 .85694 0 0)" />
		<circle cx="-810.533" cy="-183.549" r="80.514" style="fill:url(#i);fill-opacity:1;stroke:none;stroke-width:.35670954" transform="rotate(-132.295)" />
		<circle cx="390.061" cy="700.383" r="48.156" style="opacity:.87614698;fill:url(#j);fill-opacity:1;stroke:none;stroke-width:.35670954" />
	</g>
	<g transform="matrix(.12317 0 0 .11406 112.478 -5.964)">
		<ellipse cx="-60.686" cy="910.162" rx="73.759" ry="60.338" style="fill:url(#k);fill-opacity:1;stroke:none;stroke-width:.49416181" transform="matrix(.95041 -.31099 .51542 .85694 0 0)" />
		<circle cx="-810.533" cy="-183.549" r="80.514" style="fill:url(#l);fill-opacity:1;stroke:none;stroke-width:.35670954" transform="rotate(-132.295)" />
		<circle cx="390.061" cy="700.383" r="48.156" style="opacity:.87614698;fill:url(#m);fill-opacity:1;stroke:none;stroke-width:.35670954" />
	</g>
	<g transform="matrix(.12317 0 0 .11406 8.105 17.17)">
		<ellipse cx="-60.686" cy="910.162" rx="73.759" ry="60.338" style="fill:url(#n);fill-opacity:1;stroke:none;stroke-width:.49416181" transform="matrix(.95041 -.31099 .51542 .85694 0 0)" />
		<circle cx="-810.533" cy="-183.549" r="80.514" style="fill:url(#o);fill-opacity:1;stroke:none;stroke-width:.35670954" transform="rotate(-132.295)" />
		<circle cx="390.061" cy="700.383" r="48.156" style="opacity:.87614698;fill:url(#p);fill-opacity:1;stroke:none;stroke-width:.35670954" />
	</g>
	<g transform="matrix(.12317 0 0 .11406 50.539 -6.281)">
		<ellipse cx="-60.686" cy="910.162" rx="73.759" ry="60.338" style="fill:url(#q);fill-opacity:1;stroke:none;stroke-width:.49416181" transform="matrix(.95041 -.31099 .51542 .85694 0 0)" />
		<circle cx="-810.533" cy="-183.549" r="80.514" style="fill:url(#r);fill-opacity:1;stroke:none;stroke-width:.35670954" transform="rotate(-132.295)" />
		<circle cx="390.061" cy="700.383" r="48.156" style="opacity:.87614698;fill:url(#s);fill-opacity:1;stroke:none;stroke-width:.35670954" />
	</g>
	<g transform="matrix(.12317 0 0 .11406 4.341 -30.05)">
		<ellipse cx="-60.686" cy="910.162" rx="73.759" ry="60.338" style="fill:url(#t);fill-opacity:1;stroke:none;stroke-width:.49416181" transform="matrix(.95041 -.31099 .51542 .85694 0 0)" />
		<circle cx="-810.533" cy="-183.549" r="80.514" style="fill:url(#u);fill-opacity:1;stroke:none;stroke-width:.35670954" transform="rotate(-132.295)" />
		<circle cx="390.061" cy="700.383" r="48.156" style="opacity:.87614698;fill:url(#v);fill-opacity:1;stroke:none;stroke-width:.35670954" />
	</g>
	<g transform="matrix(.12799 0 0 .11853 83.503 -39.25)">
		<ellipse cx="69.866" cy="651.689" rx="73.759" ry="60.338" style="fill:url(#w);fill-opacity:1;stroke:none;stroke-width:.49416181" transform="matrix(.95041 -.31099 .51542 .85694 0 0)" />
		<circle cx="-610.512" cy="-13.935" r="80.514" style="fill:url(#x);fill-opacity:1;stroke:none;stroke-width:.35670954" transform="rotate(-132.295)" />
		<circle cx="380.918" cy="438.288" r="48.156" style="opacity:.87614698;fill:url(#y);fill-opacity:1;stroke:none;stroke-width:.35670954" />
	</g>
	<text xml:space="preserve" x="79.354" y="281.904"
		style="font-style:normal;font-variant:normal;font-weight:400;font-stretch:normal;font-size:12.80000019px;line-height:0%;font-family:Busorama;-inkscape-font-specification:Busorama;text-align:center;writing-mode:lr-tb;text-anchor:middle;fill:#fefeff;fill-opacity:1;fill-rule:evenodd;stroke:#fff;stroke-width:1.06666672;stroke-miterlimit:4;stroke-dasharray:none;stroke-opacity:1"
		transform="scale(1.3671 .73148)"><tspan x="79.354" y="281.904" style="font-size:83.52489471px;line-height:1.25;fill:#fefeff;fill-opacity:1;stroke:#fff;stroke-width:1.06666672;stroke-miterlimit:4;stroke-dasharray:none;stroke-opacity:1">Net</tspan></text>
	<path
		d="M205.785 39.522h-3.3a23.447 23.447 0 0 1-2.288 5.484l3.05 3.05a4.994 4.994 0 0 1 0 7.065l-1.767 1.768a4.998 4.998 0 0 1-7.067 0l-3.068-3.07a23.55 23.55 0 0 1-5.468 2.249v3.202a4.996 4.996 0 0 1-4.997 4.996h-2.498a4.998 4.998 0 0 1-4.997-4.996v-3.202a23.635 23.635 0 0 1-5.468-2.249l-3.068 3.07a4.994 4.994 0 0 1-7.065 0l-1.766-1.768a4.994 4.994 0 0 1 0-7.064l3.05-3.051a23.613 23.613 0 0 1-2.29-5.484h-3.297a4.998 4.998 0 0 1-4.996-5v-2.496a4.998 4.998 0 0 1 4.996-4.999h3.258a23.603 23.603 0 0 1 2.212-5.446l-2.933-2.933a4.996 4.996 0 0 1 0-7.066l1.766-1.764a4.994 4.994 0 0 1 7.065 0l2.873 2.872a23.61 23.61 0 0 1 5.663-2.366V6.966c0-2.76 2.24-4.996 4.997-4.996h2.498a4.997 4.997 0 0 1 4.997 4.996v3.355a23.576 23.576 0 0 1 5.662 2.369l2.874-2.872a4.998 4.998 0 0 1 7.067 0l1.766 1.764a4.996 4.996 0 0 1 0 7.066l-2.932 2.933a23.603 23.603 0 0 1 2.211 5.446h3.258c2.76 0 4.996 2.24 4.996 5v2.496a4.995 4.995 0 0 1-4.994 4.999zm-26.152-19.908c-7.588 0-13.74 6.152-13.74 13.74s6.152 13.74 13.74 13.74 13.74-6.152 13.74-13.74-6.152-13.74-13.74-13.74zm0 19.83a6.25 6.25 0 0 1-6.247-6.247 6.25 6.25 0 0 1 6.247-6.246 6.246 6.246 0 0 1 0 12.493z"
		style="clip-rule:evenodd;fill:#b3b3b3;fill-rule:evenodd;stroke-width:1.55739927" />
</svg>