<svg xmlns="http://www.w3.org/2000/svg" xmlns:xlink="http://www.w3.org/1999/xlink" width="341.333" height="373.333"><defs><radialGradient xlink:href="#d" id="k" cx="102.143" cy="545.934" r="135" fx="102.143" fy="545.934" gradientTransform="matrix(.16474 0 0 .16639 13.346 -272.064)" gradientUnits="userSpaceOnUse"/><radialGradient xlink:href="#d" id="m" cx="102.143" cy="545.934" r="135" fx="102.143" fy="545.934" gradientTransform="matrix(.16474 0 0 .16639 13.346 -272.064)" gradientUnits="userSpaceOnUse"/><radialGradient xlink:href="#d" id="o" cx="102.143" cy="545.934" r="135" fx="102.143" fy="545.934" gradientTransform="matrix(.16474 0 0 .16639 13.346 -272.064)" gradientUnits="userSpaceOnUse"/><radialGradient xlink:href="#d" id="q" cx="102.143" cy="545.934" r="135" fx="102.143" fy="545.934" gradientTransform="matrix(.16474 0 0 .16639 13.346 -272.064)" gradientUnits="userSpaceOnUse"/><radialGradient xlink:href="#d" id="s" cx="102.143" cy="545.934" r="135" fx="102.143" fy="545.934" gradientTransform="matrix(.16474 0 0 .16639 13.346 -272.064)" gradientUnits="userSpaceOnUse"/><radialGradient xlink:href="#d" id="u" cx="102.143" cy="545.934" r="135" fx="102.143" fy="545.934" gradientTransform="matrix(.16474 0 0 .16639 13.346 -272.064)" gradientUnits="userSpaceOnUse"/><radialGradient xlink:href="#d" id="w" cx="102.143" cy="545.934" r="135" fx="102.143" fy="545.934" gradientTransform="matrix(.16474 0 0 .16639 13.346 -272.064)" gradientUnits="userSpaceOnUse"/><radialGradient xlink:href="#d" id="y" cx="102.143" cy="545.934" r="135" fx="102.143" fy="545.934" gradientTransform="matrix(.16474 0 0 .16639 13.346 -272.064)" gradientUnits="userSpaceOnUse"/><radialGradient xlink:href="#e" id="T" cx="102.143" cy="545.934" r="135" fx="102.143" fy="545.934" gradientTransform="translate(344.482 243.548)scale(.35671)" gradientUnits="userSpaceOnUse"/><radialGradient xlink:href="#f" id="R" cx="102.143" cy="545.934" r="135" fx="102.143" fy="545.934" gradientTransform="matrix(.54636 0 0 .44695 14.059 407.686)" gradientUnits="userSpaceOnUse"/><radialGradient xlink:href="#e" id="O" cx="102.143" cy="545.934" r="135" fx="102.143" fy="545.934" gradientTransform="translate(353.625 505.643)scale(.35671)" gradientUnits="userSpaceOnUse"/><radialGradient xlink:href="#f" id="M" cx="102.143" cy="545.934" r="135" fx="102.143" fy="545.934" gradientTransform="matrix(.54636 0 0 .44695 -116.493 666.159)" gradientUnits="userSpaceOnUse"/><radialGradient xlink:href="#e" id="L" cx="102.143" cy="545.934" r="135" fx="102.143" fy="545.934" gradientTransform="translate(353.625 505.643)scale(.35671)" gradientUnits="userSpaceOnUse"/><radialGradient xlink:href="#f" id="J" cx="102.143" cy="545.934" r="135" fx="102.143" fy="545.934" gradientTransform="matrix(.54636 0 0 .44695 -116.493 666.159)" gradientUnits="userSpaceOnUse"/><radialGradient xlink:href="#e" id="I" cx="102.143" cy="545.934" r="135" fx="102.143" fy="545.934" gradientTransform="translate(353.625 505.643)scale(.35671)" gradientUnits="userSpaceOnUse"/><radialGradient xlink:href="#f" id="G" cx="102.143" cy="545.934" r="135" fx="102.143" fy="545.934" gradientTransform="matrix(.54636 0 0 .44695 -116.493 666.159)" gradientUnits="userSpaceOnUse"/><radialGradient xlink:href="#e" id="F" cx="102.143" cy="545.934" r="135" fx="102.143" fy="545.934" gradientTransform="translate(353.625 505.643)scale(.35671)" gradientUnits="userSpaceOnUse"/><radialGradient xlink:href="#f" id="D" cx="102.143" cy="545.934" r="135" fx="102.143" fy="545.934" gradientTransform="matrix(.54636 0 0 .44695 -116.493 666.159)" gradientUnits="userSpaceOnUse"/><radialGradient xlink:href="#e" id="C" cx="102.143" cy="545.934" r="135" fx="102.143" fy="545.934" gradientTransform="translate(353.625 505.643)scale(.35671)" gradientUnits="userSpaceOnUse"/><radialGradient xlink:href="#f" id="A" cx="102.143" cy="545.934" r="135" fx="102.143" fy="545.934" gradientTransform="matrix(.54636 0 0 .44695 -116.493 666.159)" gradientUnits="userSpaceOnUse"/><linearGradient id="a"><stop offset="0" style="stop-color:#772b00;stop-opacity:1"/><stop offset=".5" style="stop-color:#da441b;stop-opacity:1"/><stop offset=".75" style="stop-color:#d2400f;stop-opacity:1"/><stop offset=".938" style="stop-color:#d44316;stop-opacity:.614583"/><stop offset="1" style="stop-color:#c33900;stop-opacity:.21875"/></linearGradient><linearGradient id="d"><stop offset="0" style="stop-color:#fff;stop-opacity:1"/><stop offset="1" style="stop-color:#fff;stop-opacity:0"/></linearGradient><linearGradient xlink:href="#a" id="i" x1="154.286" x2="605.714" y1="535.219" y2="535.219" gradientUnits="userSpaceOnUse"/><linearGradient xlink:href="#a" id="l" x1="154.286" x2="605.714" y1="535.219" y2="535.219" gradientUnits="userSpaceOnUse"/><linearGradient xlink:href="#a" id="n" x1="154.286" x2="605.714" y1="535.219" y2="535.219" gradientUnits="userSpaceOnUse"/><linearGradient xlink:href="#a" id="p" x1="154.286" x2="605.714" y1="535.219" y2="535.219" gradientUnits="userSpaceOnUse"/><linearGradient xlink:href="#a" id="r" x1="154.286" x2="605.714" y1="535.219" y2="535.219" gradientUnits="userSpaceOnUse"/><linearGradient xlink:href="#a" id="t" x1="154.286" x2="605.714" y1="535.219" y2="535.219" gradientUnits="userSpaceOnUse"/><linearGradient xlink:href="#a" id="v" x1="154.286" x2="605.714" y1="535.219" y2="535.219" gradientUnits="userSpaceOnUse"/><linearGradient xlink:href="#a" id="x" x1="154.286" x2="605.714" y1="535.219" y2="535.219" gradientUnits="userSpaceOnUse"/><linearGradient xlink:href="#b" id="S" x1="154.286" x2="605.714" y1="535.219" y2="535.219" gradientTransform="translate(-746.061 -204.852)scale(.35671)" gradientUnits="userSpaceOnUse"/><linearGradient xlink:href="#c" id="N" x1="154.286" x2="605.714" y1="535.219" y2="535.219" gradientTransform="translate(-946.083 -374.467)scale(.35671)" gradientUnits="userSpaceOnUse"/><linearGradient xlink:href="#c" id="K" x1="154.286" x2="605.714" y1="535.219" y2="535.219" gradientTransform="translate(-946.083 -374.467)scale(.35671)" gradientUnits="userSpaceOnUse"/><linearGradient xlink:href="#c" id="H" x1="154.286" x2="605.714" y1="535.219" y2="535.219" gradientTransform="translate(-946.083 -374.467)scale(.35671)" gradientUnits="userSpaceOnUse"/><linearGradient xlink:href="#c" id="E" x1="154.286" x2="605.714" y1="535.219" y2="535.219" gradientTransform="translate(-946.083 -374.467)scale(.35671)" gradientUnits="userSpaceOnUse"/><linearGradient xlink:href="#c" id="B" x1="154.286" x2="605.714" y1="535.219" y2="535.219" gradientTransform="translate(-946.083 -374.467)scale(.35671)" gradientUnits="userSpaceOnUse"/><linearGradient id="f"><stop offset="0" style="stop-color:#999;stop-opacity:1"/><stop offset="1" style="stop-color:#999;stop-opacity:0"/></linearGradient><linearGradient id="c"><stop offset="0" style="stop-color:#081074;stop-opacity:1"/><stop offset=".5" style="stop-color:#5873c2;stop-opacity:1"/><stop offset=".75" style="stop-color:#0f99d2;stop-opacity:1"/><stop offset=".938" style="stop-color:#1660d4;stop-opacity:.6156863"/><stop offset="1" style="stop-color:#414cf6;stop-opacity:.21568628"/></linearGradient><linearGradient id="e"><stop offset="0" style="stop-color:#fff;stop-opacity:1"/><stop offset="1" style="stop-color:#fff;stop-opacity:0"/></linearGradient><linearGradient id="b"><stop offset="0" style="stop-color:#770900;stop-opacity:1"/><stop offset=".5" style="stop-color:#da101b;stop-opacity:1"/><stop offset=".75" style="stop-color:#d2400f;stop-opacity:1"/><stop offset=".938" style="stop-color:#d44316;stop-opacity:.614583"/><stop offset="1" style="stop-color:#c30000;stop-opacity:.21875"/></linearGradient><filter id="h" width="1.08" height="1.119" x="-.04" y="-.059" style="color-interpolation-filters:sRGB"><feGaussianBlur in="SourceGraphic" result="result0" stdDeviation="6"/><feDiffuseLighting result="result5" surfaceScale="10"><feDistantLight azimuth="235" elevation="25"/></feDiffuseLighting><feComposite in="result5" in2="SourceGraphic" k1="1" k3=".6" operator="arithmetic" result="result4"/></filter><filter id="j" width="1" height="1" x="0" y="0" style="color-interpolation-filters:sRGB"><feColorMatrix result="result1" type="hueRotate" values="180"/></filter><filter id="g" width="1.063" height="1.057" x="-.031" y="-.027" style="color-interpolation-filters:sRGB"><feColorMatrix result="result2" type="saturate" values="1"/><feColorMatrix in="result2" result="result1" type="hueRotate" values="50"/><feColorMatrix values="1 -1 1 0 0 0 1 0 0 0 1 -1 1 0 0 0 0 0 1 0"/><feColorMatrix result="fbSourceGraphic" type="hueRotate" values="300"/><feColorMatrix in="fbSourceGraphic" result="fbSourceGraphicAlpha" values="0 0 0 -1 0 0 0 0 -1 0 0 0 0 -1 0 0 0 0 1 0"/><feColorMatrix in="fbSourceGraphic" result="result1" type="saturate" values="0"/><feFlood flood-color="#096F98" result="result3"/><feBlend in2="result1" mode="screen" result="result2"/><feComposite in="result2" in2="fbSourceGraphic" operator="in"/></filter><filter id="z" width="1.176" height="1.288" x="-.088" y="-.144" style="color-interpolation-filters:sRGB"><feGaussianBlur in="SourceGraphic" result="result0" stdDeviation="6"/><feDiffuseLighting result="result5" surfaceScale="10"><feDistantLight azimuth="235" elevation="25"/></feDiffuseLighting><feComposite in="result5" in2="SourceGraphic" k1="1" k3=".6" operator="arithmetic" result="result4"/></filter></defs><g style="filter:url(#g)" transform="matrix(-.00405 .436 .47508 .00372 64.4 -.892)"><g style="fill:none;stroke:#2f5a6a;stroke-opacity:1;filter:url(#h)"><g style="fill:none;stroke:#2f5a6a;stroke-opacity:1"><path d="M226.133 16v416m208-208H16M62.933 96c93.335 68.459 228.797 68.458 322.134 0m0 256c-93.335-68.459-228.797-68.458-322.134 0M225.45 16.635c-125.225 100.658-124.577 315.51.671 416.192m.456-.671c125.225-100.658 124.576-314.838-.671-415.52" style="fill:none;stroke:#2f5a6a;stroke-width:21.33333397;stroke-opacity:1" transform="translate(32.048 35.163)scale(.8599)"/></g></g><g transform="translate(188.578 176.208)scale(.8599)"><circle cx="380" cy="535.219" r="225.714" style="fill:url(#i);fill-opacity:1;stroke:none;filter:url(#j)" transform="matrix(-.11086 -.12308 .12185 -.11197 21.83 -57.828)"/><ellipse cx="30.172" cy="-181.226" rx="22.239" ry="22.463" style="opacity:.87614698;fill:url(#k);fill-opacity:1;stroke:none;stroke-width:.16556047"/></g><g transform="translate(188.578 555.942)scale(.8599)"><circle cx="380" cy="535.219" r="225.714" style="fill:url(#l);fill-opacity:1;stroke:none;filter:url(#j)" transform="matrix(-.11086 -.12308 .12185 -.11197 21.83 -57.828)"/><ellipse cx="30.172" cy="-181.226" rx="22.239" ry="22.463" style="opacity:.87614698;fill:url(#m);fill-opacity:1;stroke:none;stroke-width:.16556047"/></g><g transform="translate(6.966 370.66)scale(.8599)"><circle cx="380" cy="535.219" r="225.714" style="fill:url(#n);fill-opacity:1;stroke:none;filter:url(#j)" transform="matrix(-.11086 -.12308 .12185 -.11197 21.83 -57.828)"/><ellipse cx="30.172" cy="-181.226" rx="22.239" ry="22.463" style="opacity:.87614698;fill:url(#o);fill-opacity:1;stroke:none;stroke-width:.16556047"/></g><g transform="translate(364.686 370.66)scale(.8599)"><circle cx="380" cy="535.219" r="225.714" style="fill:url(#p);fill-opacity:1;stroke:none;filter:url(#j)" transform="matrix(-.11086 -.12308 .12185 -.11197 21.83 -57.828)"/><ellipse cx="30.172" cy="-181.226" rx="22.239" ry="22.463" style="opacity:.87614698;fill:url(#q);fill-opacity:1;stroke:none;stroke-width:.16556047"/></g><g transform="translate(331.666 251.42)scale(.8599)"><circle cx="380" cy="535.219" r="225.714" style="fill:url(#r);fill-opacity:1;stroke:none;filter:url(#j)" transform="matrix(-.11086 -.12308 .12185 -.11197 21.83 -57.828)"/><ellipse cx="30.172" cy="-181.226" rx="22.239" ry="22.463" style="opacity:.87614698;fill:url(#s);fill-opacity:1;stroke:none;stroke-width:.16556047"/></g><g transform="translate(41.82 251.42)scale(.8599)"><circle cx="380" cy="535.219" r="225.714" style="fill:url(#t);fill-opacity:1;stroke:none;filter:url(#j)" transform="matrix(-.11086 -.12308 .12185 -.11197 21.83 -57.828)"/><ellipse cx="30.172" cy="-181.226" rx="22.239" ry="22.463" style="opacity:.87614698;fill:url(#u);fill-opacity:1;stroke:none;stroke-width:.16556047"/></g><g transform="translate(41.82 482.563)scale(.8599)"><circle cx="380" cy="535.219" r="225.714" style="fill:url(#v);fill-opacity:1;stroke:none;filter:url(#j)" transform="matrix(-.11086 -.12308 .12185 -.11197 21.83 -57.828)"/><ellipse cx="30.172" cy="-181.226" rx="22.239" ry="22.463" style="opacity:.87614698;fill:url(#w);fill-opacity:1;stroke:none;stroke-width:.16556047"/></g><g transform="translate(329.832 482.563)scale(.8599)"><circle cx="380" cy="535.219" r="225.714" style="fill:url(#x);fill-opacity:1;stroke:none;filter:url(#j)" transform="matrix(-.11086 -.12308 .12185 -.11197 21.83 -57.828)"/><ellipse cx="30.172" cy="-181.226" rx="22.239" ry="22.463" style="opacity:.87614698;fill:url(#y);fill-opacity:1;stroke:none;stroke-width:.16556047"/></g></g><text xml:space="preserve" x="556.779" y="163.51" style="font-style:normal;font-variant:normal;font-weight:400;font-stretch:condensed;line-height:0%;font-family:Impact;-inkscape-font-specification:&quot;Impact Condensed&quot;;text-align:start;writing-mode:lr-tb;text-anchor:start;fill:#002b3d;fill-opacity:1;stroke:#00132c;stroke-width:.69631934;stroke-miterlimit:4;stroke-dasharray:none;stroke-opacity:1;filter:url(#z)" transform="matrix(.74826 0 0 1.70878 -207.108 89.319)"><tspan x="556.779" y="163.51" style="font-size:127.66687775px;line-height:1.25;stroke:#00132c;stroke-width:.69631934;stroke-opacity:1">Net</tspan></text><text xml:space="preserve" x="301.732" y="171.393" style="font-style:normal;font-variant:normal;font-weight:400;font-stretch:condensed;font-size:12.80000019px;line-height:0%;font-family:Impact;-inkscape-font-specification:&quot;Impact Condensed&quot;;text-align:start;writing-mode:lr-tb;text-anchor:start;fill:#0169c9;fill-opacity:1;stroke:#4074b8;stroke-width:.78736866;stroke-miterlimit:4;stroke-dasharray:none;stroke-opacity:1" transform="matrix(.66173 0 0 1.51118 -197.702 108.745)"><tspan x="301.732" y="171.393" style="font-size:144.3603363px;line-height:1.25;stroke:#4074b8;stroke-width:.78736866;stroke-opacity:1">Word</tspan></text><path d="M359.057 451.525C278.66 554.663 182.892 585.285 139.39 583.828" style="fill:none;stroke:#0a3f6b;stroke-width:10.66666698;stroke-linecap:butt;stroke-linejoin:miter;stroke-miterlimit:4;stroke-dasharray:none;stroke-opacity:1" transform="matrix(.19272 0 0 .1862 197.465 225.786)"/><path d="M531.277 144.515C308.675 311.211 195.699 349.65 127.088 336.185" style="fill:none;stroke:#184086;stroke-width:10.66666698;stroke-linecap:butt;stroke-linejoin:miter;stroke-miterlimit:4;stroke-dasharray:none;stroke-opacity:1" transform="matrix(.19272 0 0 .1862 197.465 225.786)"/><path d="M678.894 454.918c-83.214-40.08-155.338-55.77-152.89-307.01-49.17 99.21-83.193 191.11-166.947 307.01-39.423 146.078-20.947 201.343 14.06 230.681" style="fill:none;stroke:#053f9d;stroke-width:10.66666698;stroke-linecap:butt;stroke-linejoin:miter;stroke-miterlimit:4;stroke-dasharray:none;stroke-opacity:1" transform="matrix(.19272 0 0 .1862 197.465 225.786)"/><g transform="matrix(.1219 0 0 .11368 218.943 269.886)"><ellipse cx="-60.686" cy="910.162" rx="73.759" ry="60.338" style="fill:url(#A);fill-opacity:1;stroke:none;stroke-width:.49416181" transform="matrix(.95041 -.31099 .51542 .85694 0 0)"/><circle cx="-810.533" cy="-183.549" r="80.514" style="fill:url(#B);fill-opacity:1;stroke:none;stroke-width:.35670954" transform="rotate(-132.295)"/><circle cx="390.061" cy="700.383" r="48.156" style="opacity:.87614698;fill:url(#C);fill-opacity:1;stroke:none;stroke-width:.35670954"/></g><g transform="matrix(.1219 0 0 .11368 277.685 228.511)"><ellipse cx="-60.686" cy="910.162" rx="73.759" ry="60.338" style="fill:url(#D);fill-opacity:1;stroke:none;stroke-width:.49416181" transform="matrix(.95041 -.31099 .51542 .85694 0 0)"/><circle cx="-810.533" cy="-183.549" r="80.514" style="fill:url(#E);fill-opacity:1;stroke:none;stroke-width:.35670954" transform="rotate(-132.295)"/><circle cx="390.061" cy="700.383" r="48.156" style="opacity:.87614698;fill:url(#F);fill-opacity:1;stroke:none;stroke-width:.35670954"/></g><g transform="matrix(.1219 0 0 .11368 174.39 251.567)"><ellipse cx="-60.686" cy="910.162" rx="73.759" ry="60.338" style="fill:url(#G);fill-opacity:1;stroke:none;stroke-width:.49416181" transform="matrix(.95041 -.31099 .51542 .85694 0 0)"/><circle cx="-810.533" cy="-183.549" r="80.514" style="fill:url(#H);fill-opacity:1;stroke:none;stroke-width:.35670954" transform="rotate(-132.295)"/><circle cx="390.061" cy="700.383" r="48.156" style="opacity:.87614698;fill:url(#I);fill-opacity:1;stroke:none;stroke-width:.35670954"/></g><g transform="matrix(.1219 0 0 .11368 216.386 228.195)"><ellipse cx="-60.686" cy="910.162" rx="73.759" ry="60.338" style="fill:url(#J);fill-opacity:1;stroke:none;stroke-width:.49416181" transform="matrix(.95041 -.31099 .51542 .85694 0 0)"/><circle cx="-810.533" cy="-183.549" r="80.514" style="fill:url(#K);fill-opacity:1;stroke:none;stroke-width:.35670954" transform="rotate(-132.295)"/><circle cx="390.061" cy="700.383" r="48.156" style="opacity:.87614698;fill:url(#L);fill-opacity:1;stroke:none;stroke-width:.35670954"/></g><g transform="matrix(.1219 0 0 .11368 170.665 204.507)"><ellipse cx="-60.686" cy="910.162" rx="73.759" ry="60.338" style="fill:url(#M);fill-opacity:1;stroke:none;stroke-width:.49416181" transform="matrix(.95041 -.31099 .51542 .85694 0 0)"/><circle cx="-810.533" cy="-183.549" r="80.514" style="fill:url(#N);fill-opacity:1;stroke:none;stroke-width:.35670954" transform="rotate(-132.295)"/><circle cx="390.061" cy="700.383" r="48.156" style="opacity:.87614698;fill:url(#O);fill-opacity:1;stroke:none;stroke-width:.35670954"/></g><g transform="matrix(.12667 0 0 .11813 249.01 195.339)"><ellipse cx="69.866" cy="651.689" rx="73.759" ry="60.338" style="fill:url(#R);fill-opacity:1;stroke:none;stroke-width:.49416181" transform="matrix(.95041 -.31099 .51542 .85694 0 0)"/><circle cx="-610.512" cy="-13.935" r="80.514" style="fill:url(#S);fill-opacity:1;stroke:none;stroke-width:.35670954" transform="rotate(-132.295)"/><circle cx="380.918" cy="438.288" r="48.156" style="opacity:.87614698;fill:url(#T);fill-opacity:1;stroke:none;stroke-width:.35670954"/></g><path d="M527.575-53.906h-4.514a32.068 32.068 0 0 1-3.129 7.5l4.17 4.172a6.83 6.83 0 0 1 0 9.662l-2.415 2.418a6.835 6.835 0 0 1-9.666 0l-4.196-4.199a32.209 32.209 0 0 1-7.478 3.076v4.38a6.832 6.832 0 0 1-6.833 6.832h-3.417a6.836 6.836 0 0 1-6.835-6.833v-4.379a32.324 32.324 0 0 1-7.478-3.076l-4.196 4.199a6.83 6.83 0 0 1-9.662 0l-2.416-2.418a6.83 6.83 0 0 1 0-9.662l4.171-4.172a32.295 32.295 0 0 1-3.131-7.5h-4.51a6.836 6.836 0 0 1-6.832-6.837v-3.415a6.836 6.836 0 0 1 6.833-6.837h4.456a32.281 32.281 0 0 1 3.024-7.449l-4.01-4.01a6.833 6.833 0 0 1 0-9.664l2.415-2.414a6.83 6.83 0 0 1 9.662 0l3.93 3.928a32.29 32.29 0 0 1 7.744-3.235v-4.593a6.836 6.836 0 0 1 6.835-6.833h3.417a6.834 6.834 0 0 1 6.833 6.833v4.588c2.745.75 5.342 1.84 7.745 3.24l3.93-3.928a6.835 6.835 0 0 1 9.665 0l2.416 2.414a6.833 6.833 0 0 1 0 9.664l-4.01 4.01a32.28 32.28 0 0 1 3.024 7.449h4.456a6.836 6.836 0 0 1 6.833 6.837v3.415a6.83 6.83 0 0 1-6.831 6.837zm-35.767-27.228c-10.378 0-18.791 8.414-18.791 18.791 0 10.38 8.413 18.793 18.79 18.793 10.378 0 18.792-8.413 18.792-18.793 0-10.377-8.414-18.79-18.791-18.79zm0 27.121a8.547 8.547 0 0 1-8.544-8.543 8.547 8.547 0 0 1 8.544-8.543c4.716 0 8.539 3.827 8.539 8.543 0 4.716-3.823 8.543-8.54 8.543z" style="clip-rule:evenodd;fill:#b3b3b3;fill-rule:evenodd;stroke-width:2.13000464" transform="translate(-197.702 108.745)"/></svg>