<svg xmlns="http://www.w3.org/2000/svg" xmlns:xlink="http://www.w3.org/1999/xlink" width="640" height="640" version="1.0"><desc>Picture of a blue sphere (circle with 3D highlighting)</desc><defs><radialGradient xlink:href="#a" id="e" cx="102.143" cy="545.934" r="135" fx="102.143" fy="545.934" gradientTransform="matrix(.54636 0 0 .44695 -116.493 666.159)" gradientUnits="userSpaceOnUse"/><radialGradient xlink:href="#c" id="g" cx="102.143" cy="545.934" r="135" fx="102.143" fy="545.934" gradientTransform="matrix(.35671 0 0 .35671 353.625 505.643)" gradientUnits="userSpaceOnUse"/><radialGradient xlink:href="#a" id="h" cx="102.143" cy="545.934" r="135" fx="102.143" fy="545.934" gradientTransform="matrix(.54636 0 0 .44695 -116.493 666.159)" gradientUnits="userSpaceOnUse"/><radialGradient xlink:href="#c" id="j" cx="102.143" cy="545.934" r="135" fx="102.143" fy="545.934" gradientTransform="matrix(.35671 0 0 .35671 353.625 505.643)" gradientUnits="userSpaceOnUse"/><radialGradient xlink:href="#a" id="k" cx="102.143" cy="545.934" r="135" fx="102.143" fy="545.934" gradientTransform="matrix(.54636 0 0 .44695 -116.493 666.159)" gradientUnits="userSpaceOnUse"/><radialGradient xlink:href="#c" id="m" cx="102.143" cy="545.934" r="135" fx="102.143" fy="545.934" gradientTransform="matrix(.35671 0 0 .35671 353.625 505.643)" gradientUnits="userSpaceOnUse"/><radialGradient xlink:href="#a" id="n" cx="102.143" cy="545.934" r="135" fx="102.143" fy="545.934" gradientTransform="matrix(.54636 0 0 .44695 -116.493 666.159)" gradientUnits="userSpaceOnUse"/><radialGradient xlink:href="#c" id="p" cx="102.143" cy="545.934" r="135" fx="102.143" fy="545.934" gradientTransform="matrix(.35671 0 0 .35671 353.625 505.643)" gradientUnits="userSpaceOnUse"/><radialGradient xlink:href="#a" id="q" cx="102.143" cy="545.934" r="135" fx="102.143" fy="545.934" gradientTransform="matrix(.54636 0 0 .44695 -116.493 666.159)" gradientUnits="userSpaceOnUse"/><radialGradient xlink:href="#c" id="s" cx="102.143" cy="545.934" r="135" fx="102.143" fy="545.934" gradientTransform="matrix(.35671 0 0 .35671 353.625 505.643)" gradientUnits="userSpaceOnUse"/><radialGradient xlink:href="#a" id="t" cx="102.143" cy="545.934" r="135" fx="102.143" fy="545.934" gradientTransform="matrix(.54636 0 0 .44695 14.059 407.686)" gradientUnits="userSpaceOnUse"/><radialGradient xlink:href="#c" id="v" cx="102.143" cy="545.934" r="135" fx="102.143" fy="545.934" gradientTransform="matrix(.35671 0 0 .35671 344.482 243.548)" gradientUnits="userSpaceOnUse"/><linearGradient id="d"><stop offset="0" style="stop-color:#770900;stop-opacity:1"/><stop offset=".5" style="stop-color:#da101b;stop-opacity:1"/><stop offset=".75" style="stop-color:#d2400f;stop-opacity:1"/><stop offset=".938" style="stop-color:#d44316;stop-opacity:.614583"/><stop offset="1" style="stop-color:#c30000;stop-opacity:.21875"/></linearGradient><linearGradient id="c"><stop offset="0" style="stop-color:#fff;stop-opacity:1"/><stop offset="1" style="stop-color:#fff;stop-opacity:0"/></linearGradient><linearGradient id="b"><stop offset="0" style="stop-color:#081074;stop-opacity:1"/><stop offset=".5" style="stop-color:#5873c2;stop-opacity:1"/><stop offset=".75" style="stop-color:#0f99d2;stop-opacity:1"/><stop offset=".938" style="stop-color:#1660d4;stop-opacity:.6156863"/><stop offset="1" style="stop-color:#414cf6;stop-opacity:.21568628"/></linearGradient><linearGradient id="a"><stop offset="0" style="stop-color:#999;stop-opacity:1"/><stop offset="1" style="stop-color:#999;stop-opacity:0"/></linearGradient><linearGradient xlink:href="#b" id="f" x1="154.286" x2="605.714" y1="535.219" y2="535.219" gradientTransform="matrix(.35671 0 0 .35671 -946.083 -374.467)" gradientUnits="userSpaceOnUse"/><linearGradient xlink:href="#b" id="i" x1="154.286" x2="605.714" y1="535.219" y2="535.219" gradientTransform="matrix(.35671 0 0 .35671 -946.083 -374.467)" gradientUnits="userSpaceOnUse"/><linearGradient xlink:href="#b" id="l" x1="154.286" x2="605.714" y1="535.219" y2="535.219" gradientTransform="matrix(.35671 0 0 .35671 -946.083 -374.467)" gradientUnits="userSpaceOnUse"/><linearGradient xlink:href="#b" id="o" x1="154.286" x2="605.714" y1="535.219" y2="535.219" gradientTransform="matrix(.35671 0 0 .35671 -946.083 -374.467)" gradientUnits="userSpaceOnUse"/><linearGradient xlink:href="#b" id="r" x1="154.286" x2="605.714" y1="535.219" y2="535.219" gradientTransform="matrix(.35671 0 0 .35671 -946.083 -374.467)" gradientUnits="userSpaceOnUse"/><linearGradient xlink:href="#d" id="u" x1="154.286" x2="605.714" y1="535.219" y2="535.219" gradientTransform="matrix(.35671 0 0 .35671 -746.061 -204.852)" gradientUnits="userSpaceOnUse"/></defs><ellipse cx="320" cy="320" rx="313.117" ry="313.837" style="opacity:.98999999;fill:purple;fill-opacity:1;fill-rule:evenodd;stroke:none;stroke-width:5;stroke-linecap:round;stroke-linejoin:round;stroke-miterlimit:4;stroke-dasharray:none;stroke-dashoffset:0;stroke-opacity:1"/><path d="M359.057 451.525C278.66 554.663 182.892 585.285 139.39 583.828" style="fill:none;stroke:#0a3f6b;stroke-width:16.77659798;stroke-linecap:butt;stroke-linejoin:miter;stroke-miterlimit:4;stroke-dasharray:none;stroke-opacity:1" transform="matrix(.39738 0 0 .38128 159.926 28.105)"/><path d="M531.277 144.515C308.675 311.211 195.699 349.65 127.088 336.185" style="fill:none;stroke:#184086;stroke-width:16.77659798;stroke-linecap:butt;stroke-linejoin:miter;stroke-miterlimit:4;stroke-dasharray:none;stroke-opacity:1" transform="matrix(.39738 0 0 .38128 159.926 28.105)"/><path d="M678.894 454.918c-83.214-40.08-155.338-55.77-152.89-307.01-49.17 99.21-83.193 191.11-166.947 307.01-39.423 146.078-20.947 201.343 14.06 230.681" style="fill:none;stroke:#053f9d;stroke-width:16.77659798;stroke-linecap:butt;stroke-linejoin:miter;stroke-miterlimit:4;stroke-dasharray:none;stroke-opacity:1" transform="matrix(.39738 0 0 .38128 159.926 28.105)"/><g transform="matrix(.25134 0 0 .23276 204.212 118.405)"><ellipse cx="-60.686" cy="910.162" rx="73.759" ry="60.338" style="fill:url(#e);fill-opacity:1;stroke:none;stroke-width:.49416181" transform="matrix(.95041 -.31099 .51542 .85694 0 0)"/><circle cx="-810.533" cy="-183.549" r="80.514" style="fill:url(#f);fill-opacity:1;stroke:none;stroke-width:.35670954" transform="rotate(-132.295)"/><circle cx="390.061" cy="700.383" r="48.156" style="opacity:.87614698;fill:url(#g);fill-opacity:1;stroke:none;stroke-width:.35670954"/></g><g transform="matrix(.25134 0 0 .23276 325.338 33.685)"><ellipse cx="-60.686" cy="910.162" rx="73.759" ry="60.338" style="fill:url(#h);fill-opacity:1;stroke:none;stroke-width:.49416181" transform="matrix(.95041 -.31099 .51542 .85694 0 0)"/><circle cx="-810.533" cy="-183.549" r="80.514" style="fill:url(#i);fill-opacity:1;stroke:none;stroke-width:.35670954" transform="rotate(-132.295)"/><circle cx="390.061" cy="700.383" r="48.156" style="opacity:.87614698;fill:url(#j);fill-opacity:1;stroke:none;stroke-width:.35670954"/></g><g transform="matrix(.25134 0 0 .23276 112.346 80.895)"><ellipse cx="-60.686" cy="910.162" rx="73.759" ry="60.338" style="fill:url(#k);fill-opacity:1;stroke:none;stroke-width:.49416181" transform="matrix(.95041 -.31099 .51542 .85694 0 0)"/><circle cx="-810.533" cy="-183.549" r="80.514" style="fill:url(#l);fill-opacity:1;stroke:none;stroke-width:.35670954" transform="rotate(-132.295)"/><circle cx="390.061" cy="700.383" r="48.156" style="opacity:.87614698;fill:url(#m);fill-opacity:1;stroke:none;stroke-width:.35670954"/></g><g transform="matrix(.25134 0 0 .23276 198.94 33.038)"><ellipse cx="-60.686" cy="910.162" rx="73.759" ry="60.338" style="fill:url(#n);fill-opacity:1;stroke:none;stroke-width:.49416181" transform="matrix(.95041 -.31099 .51542 .85694 0 0)"/><circle cx="-810.533" cy="-183.549" r="80.514" style="fill:url(#o);fill-opacity:1;stroke:none;stroke-width:.35670954" transform="rotate(-132.295)"/><circle cx="390.061" cy="700.383" r="48.156" style="opacity:.87614698;fill:url(#p);fill-opacity:1;stroke:none;stroke-width:.35670954"/></g><g transform="matrix(.25134 0 0 .23276 104.665 -15.465)"><ellipse cx="-60.686" cy="910.162" rx="73.759" ry="60.338" style="fill:url(#q);fill-opacity:1;stroke:none;stroke-width:.49416181" transform="matrix(.95041 -.31099 .51542 .85694 0 0)"/><circle cx="-810.533" cy="-183.549" r="80.514" style="fill:url(#r);fill-opacity:1;stroke:none;stroke-width:.35670954" transform="rotate(-132.295)"/><circle cx="390.061" cy="700.383" r="48.156" style="opacity:.87614698;fill:url(#s);fill-opacity:1;stroke:none;stroke-width:.35670954"/></g><g transform="matrix(.26119 0 0 .24188 266.21 -34.24)"><ellipse cx="69.866" cy="651.689" rx="73.759" ry="60.338" style="fill:url(#t);fill-opacity:1;stroke:none;stroke-width:.49416181" transform="matrix(.95041 -.31099 .51542 .85694 0 0)"/><circle cx="-610.512" cy="-13.935" r="80.514" style="fill:url(#u);fill-opacity:1;stroke:none;stroke-width:.35670954" transform="rotate(-132.295)"/><circle cx="380.918" cy="438.288" r="48.156" style="opacity:.87614698;fill:url(#v);fill-opacity:1;stroke:none;stroke-width:.35670954"/></g><path d="M570.497 238.688h-5.996a42.018 42.018 0 0 1-4.157 9.875l5.54 5.494a8.937 8.937 0 0 1 0 12.721l-3.208 3.183c-3.546 3.514-9.296 3.514-12.841 0l-5.575-5.527a43.004 43.004 0 0 1-9.935 4.05v5.765c0 4.97-4.063 8.997-9.077 8.997h-4.54c-5.01 0-9.08-4.027-9.08-8.997v-5.766a43.158 43.158 0 0 1-9.935-4.05l-5.574 5.528c-3.54 3.514-9.29 3.514-12.836 0l-3.208-3.183a8.937 8.937 0 0 1 0-12.721l5.54-5.494a42.315 42.315 0 0 1-4.16-9.875h-5.99c-5.014 0-9.078-4.033-9.078-9.002v-4.496c0-4.97 4.064-9.002 9.078-9.002h5.92c.94-3.461 2.283-6.75 4.018-9.808l-5.328-5.28a8.94 8.94 0 0 1 0-12.725l3.208-3.177c3.546-3.514 9.296-3.514 12.836 0l5.22 5.171a43.11 43.11 0 0 1 10.29-4.26v-6.046c0-4.97 4.068-8.997 9.08-8.997h4.539c5.01 0 9.077 4.027 9.077 8.997v6.04a43.046 43.046 0 0 1 10.289 4.266l5.22-5.171c3.546-3.514 9.293-3.514 12.842 0l3.209 3.177a8.94 8.94 0 0 1 0 12.724l-5.329 5.281c1.738 3.057 3.076 6.347 4.018 9.808h5.92c5.014 0 9.078 4.033 9.078 9.002v4.496c.004 4.972-4.06 9.002-9.075 9.002zm-47.516-35.85c-13.786 0-24.963 11.078-24.963 24.742 0 13.666 11.177 24.744 24.963 24.744 13.786 0 24.963-11.078 24.963-24.744 0-13.664-11.177-24.742-24.963-24.742zm0 35.71c-6.265 0-11.35-5.04-11.35-11.249 0-6.209 5.085-11.249 11.35-11.249s11.344 5.04 11.344 11.25c0 6.208-5.08 11.248-11.344 11.248z" style="clip-rule:evenodd;fill:#b3b3b3;fill-rule:evenodd;stroke-width:2.81706691"/><text xml:space="preserve" x="299.318" y="401.602" style="font-style:normal;font-variant:normal;font-weight:400;font-stretch:normal;font-size:12.80000019px;line-height:0%;font-family:Busorama;-inkscape-font-specification:Busorama;text-align:center;writing-mode:lr-tb;text-anchor:middle;fill:snow;fill-opacity:1;fill-rule:evenodd;stroke:#fff;stroke-width:1.06666672;stroke-miterlimit:4;stroke-dasharray:none;stroke-opacity:1" transform="matrix(2.17467 0 0 2.05 -311.819 -396.903)"><tspan x="299.318" y="401.602" style="font-size:71.31918335px;line-height:1.25;fill:snow;fill-opacity:1;stroke:#fff;stroke-width:1.06666672;stroke-miterlimit:4;stroke-dasharray:none;stroke-opacity:1">Word</tspan></text><text xml:space="preserve" x="234.684" y="596.906" style="font-style:normal;font-variant:normal;font-weight:400;font-stretch:normal;font-size:12.80000019px;line-height:0%;font-family:Busorama;-inkscape-font-specification:Busorama;text-align:center;writing-mode:lr-tb;text-anchor:middle;fill:#fefeff;fill-opacity:1;fill-rule:evenodd;stroke:#fff;stroke-width:1.06666672;stroke-miterlimit:4;stroke-dasharray:none;stroke-opacity:1" transform="matrix(2.7797 0 0 1.6038 -311.819 -396.903)"><tspan x="234.684" y="596.906" style="font-size:83.52489471px;line-height:1.25;fill:#fefeff;fill-opacity:1;stroke:#fff;stroke-width:1.06666672;stroke-miterlimit:4;stroke-dasharray:none;stroke-opacity:1">Net</tspan></text></svg>